<?xml version="1.0" encoding="UTF-8" standalone="no"?>
<!-- Created with Inkscape (http://www.inkscape.org/) -->

<svg
   xmlns:dc="http://purl.org/dc/elements/1.1/"
   xmlns:cc="http://creativecommons.org/ns#"
   xmlns:rdf="http://www.w3.org/1999/02/22-rdf-syntax-ns#"
   xmlns:svg="http://www.w3.org/2000/svg"
   xmlns="http://www.w3.org/2000/svg"
   xmlns:sodipodi="http://sodipodi.sourceforge.net/DTD/sodipodi-0.dtd"
   xmlns:inkscape="http://www.inkscape.org/namespaces/inkscape"
   width="210mm"
   height="297mm"
   viewBox="0 0 210 297"
   version="1.1"
   id="svg8"
   inkscape:version="0.92.3 (2405546, 2018-03-11)"
   sodipodi:docname="pointer.svg">
  <defs
     id="defs2" />
  <sodipodi:namedview
     id="base"
     pagecolor="#ffffff"
     bordercolor="#666666"
     borderopacity="1.0"
     inkscape:pageopacity="0.0"
     inkscape:pageshadow="2"
     inkscape:zoom="0.49497475"
     inkscape:cx="385.52433"
     inkscape:cy="537.22695"
     inkscape:document-units="mm"
     inkscape:current-layer="layer1"
     showgrid="false"
     inkscape:window-width="1920"
     inkscape:window-height="1137"
     inkscape:window-x="-8"
     inkscape:window-y="-8"
     inkscape:window-maximized="1" />
  <metadata
     id="metadata5">
    <rdf:RDF>
      <cc:Work
         rdf:about="">
        <dc:format>image/svg+xml</dc:format>
        <dc:type
           rdf:resource="http://purl.org/dc/dcmitype/StillImage" />
        <dc:title></dc:title>
      </cc:Work>
    </rdf:RDF>
  </metadata>
  <g
     inkscape:label="Capa 1"
     inkscape:groupmode="layer"
     id="layer1">
    <rect
       style="fill:#000000;stroke-width:0.16755664"
       id="rect37"
       width="162.54106"
       height="162.54106"
       x="23.729469"
       y="67.229469"
       inkscape:export-xdpi="19.377256"
       inkscape:export-ydpi="19.377256" />
    <path
       style="fill:#ffffff;stroke-width:0.15964653"
       d="m 104.99984,99.579875 a 48.920261,48.920261 0 0 0 -48.920128,48.920135 48.920261,48.920261 0 0 0 48.920128,48.92012 48.920261,48.920261 0 0 0 48.92045,-48.92012 48.920261,48.920261 0 0 0 -48.92045,-48.920135 z m 0,2.015855 a 46.904415,46.904415 0 0 1 46.9046,46.90428 46.904415,46.904415 0 0 1 -46.9046,46.90427 46.904415,46.904415 0 0 1 -46.904277,-46.90427 46.904415,46.904415 0 0 1 46.904277,-46.90428 z"
       id="path10"
       inkscape:connector-curvature="0" />
    <path
       id="path17"
       d="m 104.99986,103.81296 a 44.687167,44.687167 0 0 0 -44.687048,44.68705 44.687167,44.687167 0 0 0 44.687048,44.68704 44.687167,44.687167 0 0 0 44.68733,-44.68704 44.687167,44.687167 0 0 0 -44.68733,-44.68705 z m 0,1.84141 a 42.845754,42.845754 0 0 1 42.84591,42.84564 42.845754,42.845754 0 0 1 -42.84591,42.84563 42.845754,42.845754 0 0 1 -42.845631,-42.84563 42.845754,42.845754 0 0 1 42.845631,-42.84564 z"
       style="fill:#ffffff;stroke-width:0.14583224"
       inkscape:connector-curvature="0" />
    <path
       inkscape:transform-center-y="-1.5728787"
       inkscape:transform-center-x="0.63162197"
       d="m 124.45694,173.47965 c -5.46312,4.25529 -7.55349,-12.45368 -14.06418,-10.09486 -6.5107,2.35883 2.58652,16.52921 -4.33444,16.76067 -6.92095,0.23146 1.20919,-14.51507 -5.44455,-16.43363 -6.653743,-1.91856 -7.623087,14.89273 -13.358303,11.01195 -5.735217,-3.88078 9.509995,-11.03219 5.254707,-16.49531 -4.255288,-5.46312 -14.920934,7.56773 -17.279756,1.05704 -2.358822,-6.51069 14.178308,-3.3354 13.94685,-10.25635 -0.231459,-6.92095 -16.519492,-2.64788 -14.60093,-9.30162 1.918563,-6.65374 13.430989,5.63541 17.311769,-0.0998 3.880781,-5.73521 -11.808165,-11.85209 -6.345044,-16.10738 5.463121,-4.25529 7.553488,12.45368 14.064181,10.09486 6.510696,-2.35883 -2.586521,-16.52921 4.334436,-16.76067 6.92095,-0.23146 -1.20919,14.51507 5.44455,16.43363 6.65374,1.91856 7.62309,-14.89273 13.3583,-11.01195 5.73522,3.88078 -9.50999,11.03219 -5.2547,16.49531 4.25528,5.46312 14.92093,-7.56773 17.27975,-1.05704 2.35882,6.51069 -14.17831,3.3354 -13.94685,10.25635 0.23146,6.92095 16.51949,2.64788 14.60093,9.30162 -1.91856,6.65374 -13.43099,-5.63541 -17.31177,0.0998 -3.88078,5.73521 11.80817,11.85209 6.34505,16.10738 z"
       inkscape:randomized="0"
       inkscape:rounded="0.4"
       inkscape:flatsided="false"
       sodipodi:arg2="1.2232064"
       sodipodi:arg1="0.90904711"
       sodipodi:r2="15.831578"
       sodipodi:r1="31.663153"
       sodipodi:cy="148.5"
       sodipodi:cx="105"
       sodipodi:sides="10"
       id="path21"
       style="fill:#ffffff;stroke-width:0.08411086"
       sodipodi:type="star"
       transform="matrix(0.59960065,-0.16066251,0.16066251,0.59960065,18.183549,76.328867)" />
    <circle
       style="fill:#ffffff;stroke-width:0.10870811"
       id="path27"
       cx="105"
       cy="148.5"
       r="3.1037614" />
    <rect
       style="fill:#ffffff;stroke-width:0.15687349"
       id="rect29"
       width="55.867702"
       height="60.769062"
       x="77.066147"
       y="118.11547" />
    <rect
       y="120.6964"
       x="79.438904"
       height="55.607212"
       width="51.122185"
       id="rect31"
       style="fill:#000000;stroke-width:0.14354834" />
    <path
       sodipodi:type="star"
       style="fill:#ffffff;stroke-width:0.65177685"
       id="path33"
       sodipodi:sides="10"
       sodipodi:cx="105"
       sodipodi:cy="148.5"
       sodipodi:r1="82.159561"
       sodipodi:r2="13.967125"
       sodipodi:arg1="0.89782529"
       sodipodi:arg2="1.2119846"
       inkscape:flatsided="false"
       inkscape:rounded="0"
       inkscape:randomized="0"
       d="m 156.21104,212.74658 -46.30632,-51.16895 -1.23731,69.00004 -7.38624,-68.61473 -41.558215,55.09494 34.355127,-59.852 -66.005291,20.14543 62.974006,-28.22785 -65.24059,-22.49894 67.538954,14.17838 -39.556202,-56.549478 46.306321,51.168948 1.23731,-69.000038 7.38624,68.614728 41.55821,-55.094939 -34.35512,59.851999 66.00529,-20.14543 -62.97401,28.22785 65.24059,22.49894 -67.53895,-14.17838 z"
       inkscape:transform-center-y="-6.9726638e-006"
       inkscape:transform-center-x="-5.8539623e-006"
       transform="matrix(0.93250666,0.04832657,-0.04832657,0.93250666,14.263296,4.9484711)" />
    <circle
       style="fill:#ffffff;stroke-width:0.15718845"
       id="path35"
       cx="105"
       cy="148.5"
       r="6.8282747" />
  </g>
</svg>
